<svg width="141" height="32" viewBox="0 0 141 32" fill="none" xmlns="http://www.w3.org/2000/svg">
<path d="M-3.3319e-05 1.66193H7.58519L15.5966 21.2074H15.9375L23.9488 1.66193H31.5341V30.7528H25.5682V11.8182H25.3267L17.7983 30.6108H13.7358L6.20735 11.7472H5.96588V30.7528H-3.3319e-05V1.66193ZM46.3458 31.179C44.1394 31.179 42.2313 30.7102 40.6214 29.7727C39.021 28.8258 37.7852 27.5095 36.914 25.8239C36.0428 24.1288 35.6072 22.1638 35.6072 19.929C35.6072 17.6752 36.0428 15.7055 36.914 14.0199C37.7852 12.3248 39.021 11.0085 40.6214 10.071C42.2313 9.12405 44.1394 8.65057 46.3458 8.65057C48.5523 8.65057 50.4557 9.12405 52.0561 10.071C53.6659 11.0085 54.9065 12.3248 55.7777 14.0199C56.6489 15.7055 57.0845 17.6752 57.0845 19.929C57.0845 22.1638 56.6489 24.1288 55.7777 25.8239C54.9065 27.5095 53.6659 28.8258 52.0561 29.7727C50.4557 30.7102 48.5523 31.179 46.3458 31.179ZM46.3743 26.4915C47.378 26.4915 48.2161 26.2074 48.8885 25.6392C49.5608 25.0616 50.0674 24.2756 50.4083 23.2812C50.7587 22.2869 50.9339 21.1553 50.9339 19.8864C50.9339 18.6174 50.7587 17.4858 50.4083 16.4915C50.0674 15.4972 49.5608 14.7112 48.8885 14.1335C48.2161 13.5559 47.378 13.267 46.3743 13.267C45.361 13.267 44.5087 13.5559 43.8174 14.1335C43.1356 14.7112 42.6195 15.4972 42.2691 16.4915C41.9282 17.4858 41.7578 18.6174 41.7578 19.8864C41.7578 21.1553 41.9282 22.2869 42.2691 23.2812C42.6195 24.2756 43.1356 25.0616 43.8174 25.6392C44.5087 26.2074 45.361 26.4915 46.3743 26.4915ZM80.6569 8.93466L73.0291 30.7528H66.2109L58.5831 8.93466H64.9751L69.5064 24.5455H69.7336L74.2507 8.93466H80.6569ZM95.4865 8.93466V13.4801H82.0206V8.93466H95.4865ZM85.1029 30.7528V7.35795C85.1029 5.77651 85.4107 4.46496 86.0262 3.42329C86.6512 2.38162 87.5035 1.60037 88.5831 1.07954C89.6626 0.558707 90.8889 0.298291 92.262 0.298291C93.1901 0.298291 94.0376 0.369314 94.8047 0.511361C95.5812 0.653406 96.1588 0.781247 96.5376 0.894883L95.4581 5.44034C95.2213 5.36458 94.9278 5.29356 94.5774 5.22727C94.2365 5.16098 93.8861 5.12784 93.5262 5.12784C92.6361 5.12784 92.0158 5.33617 91.6655 5.75284C91.3151 6.16003 91.1399 6.73295 91.1399 7.47159V30.7528H85.1029ZM105.234 1.66193V30.7528H99.1832V1.66193H105.234ZM110.082 30.7528V8.93466H116.133V30.7528H110.082ZM113.121 6.12216C112.222 6.12216 111.45 5.82386 110.806 5.22727C110.172 4.62121 109.854 3.89678 109.854 3.05397C109.854 2.22064 110.172 1.50568 110.806 0.909088C111.45 0.303027 112.222 -4.29153e-06 113.121 -4.29153e-06C114.021 -4.29153e-06 114.788 0.303027 115.423 0.909088C116.066 1.50568 116.388 2.22064 116.388 3.05397C116.388 3.89678 116.066 4.62121 115.423 5.22727C114.788 5.82386 114.021 6.12216 113.121 6.12216ZM126.037 8.93466L130.043 16.5625L134.148 8.93466H140.355L134.034 19.8437L140.526 30.7528H134.347L130.043 23.2102L125.81 30.7528H119.56L126.037 19.8437L119.787 8.93466H126.037Z" fill="#F5C013"/>
</svg>
